<svg width="79" height="79" viewBox="0 0 79 79" fill="none" xmlns="http://www.w3.org/2000/svg">
<path d="M14.4348 27.4036C13.5089 28.4992 12.0275 29.3634 10.5461 29.2399C10.3609 27.7585 11.0862 26.1845 11.9349 25.2123C12.8608 24.0858 14.4811 23.2834 15.7928 23.2217C15.9471 24.7648 15.3452 26.2771 14.4348 27.4036ZM15.7773 29.5331C13.6324 29.4097 11.796 30.7522 10.7775 30.7522C9.74363 30.7522 8.18505 29.5949 6.48759 29.6257C4.28089 29.6566 2.22851 30.9065 1.10201 32.8972C-1.2127 36.8785 0.500187 42.7733 2.73775 46.0139C3.83338 47.6188 5.14505 49.378 6.87338 49.3163C8.50911 49.2545 9.15723 48.2515 11.1325 48.2515C13.1231 48.2515 13.6941 49.3163 15.4224 49.2854C17.2125 49.2545 18.3389 47.6805 19.4346 46.0757C20.6845 44.2548 21.1938 42.4801 21.2246 42.3875C21.1938 42.3567 17.768 41.045 17.7371 37.0946C17.7063 33.7922 20.4376 32.2182 20.5611 32.1256C19.0179 29.8418 16.6106 29.5949 15.7773 29.5331ZM28.1688 25.058V49.1157H31.9032V40.8907H37.0727C41.7948 40.8907 45.1125 37.6501 45.1125 32.9589C45.1125 28.2678 41.8565 25.058 37.1962 25.058H28.1688ZM31.9032 28.206H36.2086C39.4492 28.206 41.301 29.9344 41.301 32.9744C41.301 36.0144 39.4492 37.7581 36.1931 37.7581H31.9032V28.206ZM51.9332 49.3008C54.2788 49.3008 56.4546 48.1126 57.4423 46.23H57.5194V49.1157H60.9761V37.1409C60.9761 33.6688 58.1984 31.4312 53.9239 31.4312C49.958 31.4312 47.026 33.6996 46.918 36.8168H50.2821C50.5598 35.3354 51.9332 34.3632 53.8159 34.3632C56.0997 34.3632 57.3805 35.428 57.3805 37.3878V38.7149L52.7202 38.9926C48.384 39.255 46.0384 41.0296 46.0384 44.1159C46.0384 47.233 48.4611 49.3008 51.9332 49.3008ZM52.9363 46.446C50.9456 46.446 49.6802 45.4893 49.6802 44.0233C49.6802 42.511 50.8993 41.6314 53.2295 41.4925L57.3805 41.2302V42.5882C57.3805 44.8411 55.467 46.446 52.9363 46.446ZM65.5901 55.6586C69.2319 55.6586 70.9448 54.2698 72.4416 50.057L79 31.6627H75.2039L70.8059 45.8751H70.7287L66.3308 31.6627H62.4266L68.7535 49.1774L68.414 50.2422C67.8431 52.0476 66.9172 52.7421 65.266 52.7421C64.9728 52.7421 64.4018 52.7112 64.1704 52.6803V55.566C64.3864 55.6277 65.3123 55.6586 65.5901 55.6586Z" fill="white"/>
</svg>
