<svg width="111" height="110" viewBox="0 0 111 110" fill="none" xmlns="http://www.w3.org/2000/svg">
<g clip-path="url(#clip0_42_371)">
<path d="M82.9672 36.7086H60.0781V22.9751H50.9225V36.7086H28.0334C23.177 36.7086 18.5194 38.6378 15.0854 42.0718C11.6514 45.5058 9.72217 50.1634 9.72217 55.0198V96.2202H101.278V55.0198C101.278 50.1634 99.3492 45.5058 95.9152 42.0718C92.4812 38.6378 87.8236 36.7086 82.9672 36.7086ZM92.1228 87.0645H18.8778V73.3311C21.2427 73.2402 23.5638 72.6652 25.6977 71.6416C27.8315 70.618 29.7327 69.1675 31.2837 67.3799C31.9242 66.3976 32.7997 65.5905 33.8309 65.0319C34.8621 64.4732 36.0163 64.1806 37.1891 64.1806C38.3618 64.1806 39.5161 64.4732 40.5472 65.0319C41.5784 65.5905 42.4539 66.3976 43.0944 67.3799C44.5924 69.2259 46.4834 70.7143 48.6296 71.7366C50.7758 72.759 53.1231 73.2895 55.5003 73.2895C57.8776 73.2895 60.2249 72.759 62.3711 71.7366C64.5173 70.7143 66.4083 69.2259 67.9062 67.3799C68.5467 66.3976 69.4222 65.5905 70.4534 65.0319C71.4846 64.4732 72.6388 64.1806 73.8116 64.1806C74.9843 64.1806 76.1386 64.4732 77.1697 65.0319C78.2009 65.5905 79.0764 66.3976 79.717 67.3799C81.2679 69.1675 83.1691 70.618 85.303 71.6416C87.4368 72.6652 89.7579 73.2402 92.1228 73.3311V87.0645ZM92.1228 64.1755C89.8194 63.8943 87.7087 62.7489 86.2174 60.971C84.7195 59.125 82.8285 57.6366 80.6823 56.6143C78.5361 55.592 76.1888 55.0614 73.8116 55.0614C71.4343 55.0614 69.087 55.592 66.9408 56.6143C64.7946 57.6366 62.9036 59.125 61.4057 60.971C60.7651 61.9534 59.8896 62.7604 58.8585 63.3191C57.8273 63.8777 56.6731 64.1703 55.5003 64.1703C54.3275 64.1703 53.1733 63.8777 52.1422 63.3191C51.111 62.7604 50.2355 61.9534 49.5949 60.971C48.097 59.125 46.206 57.6366 44.0598 56.6143C41.9136 55.592 39.5663 55.0614 37.1891 55.0614C34.8118 55.0614 32.4645 55.592 30.3183 56.6143C28.1721 57.6366 26.2811 59.125 24.7832 60.971C23.2919 62.7489 21.1812 63.8943 18.8778 64.1755V55.0198C18.8778 52.5916 19.8424 50.2628 21.5594 48.5458C23.2764 46.8288 25.6052 45.8642 28.0334 45.8642H82.9672C85.3954 45.8642 87.7242 46.8288 89.4412 48.5458C91.1582 50.2628 92.1228 52.5916 92.1228 55.0198V64.1755ZM55.5003 19.2671C57.3822 19.2671 59.187 18.5195 60.5177 17.1888C61.8484 15.8582 62.5959 14.0534 62.5959 12.1715C62.5959 6.495 55.5003 0.0860596 55.5003 0.0860596C55.5003 0.0860596 48.4047 6.495 48.4047 12.1715C48.4047 14.0534 49.1523 15.8582 50.483 17.1888C51.8136 18.5195 53.6184 19.2671 55.5003 19.2671Z" fill="#FFAE00"/>
</g>
<defs>
<clipPath id="clip0_42_371">
<rect width="109.868" height="109.868" fill="white" transform="translate(0.566406 0.0860596)"/>
</clipPath>
</defs>
</svg>
