<svg width="48" height="49" viewBox="0 0 48 49" fill="none" xmlns="http://www.w3.org/2000/svg">
<path d="M24 12V44.5M24 12H15.1607C13.8583 12 12.6092 11.4732 11.6883 10.5355C10.7674 9.59785 10.25 8.32608 10.25 7C10.25 5.67392 10.7674 4.40215 11.6883 3.46447C12.6092 2.52677 13.8583 2 15.1607 2C22.0357 2 24 12 24 12ZM24 12H32.8392C34.1417 12 35.3907 11.4732 36.3117 10.5355C37.2325 9.59785 37.75 8.32608 37.75 7C37.75 5.67392 37.2325 4.40215 36.3117 3.46447C35.3907 2.52677 34.1417 2 32.8392 2C25.9642 2 24 12 24 12ZM6.5 24.5H41.5V39C41.5 41.8002 41.5 43.2005 40.955 44.27C40.4757 45.2108 39.7108 45.9757 38.77 46.455C37.7005 47 36.3003 47 33.5 47H14.5C11.6997 47 10.2996 47 9.23005 46.455C8.28923 45.9757 7.52432 45.2108 7.04497 44.27C6.5 43.2005 6.5 41.8002 6.5 39V24.5ZM5.5 24.5H42.5C43.9002 24.5 44.6003 24.5 45.135 24.2275C45.6055 23.9877 45.9878 23.6055 46.2275 23.135C46.5 22.6003 46.5 21.9002 46.5 20.5V16C46.5 14.5999 46.5 13.8998 46.2275 13.365C45.9878 12.8946 45.6055 12.5122 45.135 12.2725C44.6003 12 43.9002 12 42.5 12H5.5C4.09987 12 3.3998 12 2.86503 12.2725C2.39463 12.5122 2.01217 12.8946 1.77247 13.365C1.5 13.8998 1.5 14.5999 1.5 16V20.5C1.5 21.9002 1.5 22.6003 1.77247 23.135C2.01217 23.6055 2.39463 23.9877 2.86503 24.2275C3.3998 24.5 4.09987 24.5 5.5 24.5Z" stroke="black" stroke-width="3" stroke-linecap="round" stroke-linejoin="round"/>
</svg>
