<svg width="49" height="49" viewBox="0 0 49 49" fill="none" xmlns="http://www.w3.org/2000/svg">
<path d="M2 17H47M12 2V7M37 2V7M9.5 24.5H14.5M22 24.5H27M34.5 24.5H39.5M9.5 32H14.5M22 32H27M34.5 32H39.5M9.5 39.5H14.5M22 39.5H27M34.5 39.5H39.5M10 47H39C41.8002 47 43.2005 47 44.27 46.455C45.2108 45.9757 45.9757 45.2108 46.455 44.27C47 43.2005 47 41.8002 47 39V15C47 12.1997 47 10.7996 46.455 9.73005C45.9757 8.78923 45.2108 8.02432 44.27 7.54497C43.2005 7 41.8002 7 39 7H10C7.19975 7 5.7996 7 4.73005 7.54497C3.78923 8.02432 3.02432 8.78923 2.54497 9.73005C2 10.7996 2 12.1997 2 15V39C2 41.8002 2 43.2005 2.54497 44.27C3.02432 45.2108 3.78923 45.9757 4.73005 46.455C5.7996 47 7.19972 47 10 47Z" stroke="black" stroke-width="3" stroke-linecap="round"/>
</svg>
