<svg width="33" height="33" viewBox="0 0 33 33" fill="none" xmlns="http://www.w3.org/2000/svg">
<path d="M2 10H26M7.33333 2V4.66667M20.6667 2V4.66667M6 14H8.66667M12.6667 14H15.3333M19.3333 14H22M6 18H8.66667M12.6667 18H15.3333M19.3333 18H22M6 22H8.66667M12.6667 22H15.3333M19.3333 22H22M6.26667 26H21.7333C23.2268 26 23.9736 26 24.544 25.7093C25.0457 25.4537 25.4537 25.0457 25.7093 24.544C26 23.9736 26 23.2268 26 21.7333V8.93333C26 7.43985 26 6.69312 25.7093 6.12269C25.4537 5.62092 25.0457 5.21297 24.544 4.95732C23.9736 4.66667 23.2268 4.66667 21.7333 4.66667H6.26667C4.7732 4.66667 4.02645 4.66667 3.45603 4.95732C2.95425 5.21297 2.54631 5.62092 2.29065 6.12269C2 6.69312 2 7.43985 2 8.93333V21.7333C2 23.2268 2 23.9736 2.29065 24.544C2.54631 25.0457 2.95425 25.4537 3.45603 25.7093C4.02645 26 4.77319 26 6.26667 26Z" stroke="#FFAE00" stroke-width="2" stroke-linecap="round"/>
</svg>
