<svg width="60" height="61" viewBox="0 0 60 61" fill="none" xmlns="http://www.w3.org/2000/svg">
<path d="M58.9326 46.3438C58.9326 41.5625 58.3701 36.9688 57.9014 32.5625C57.3389 27.5 56.7764 22.3438 56.9639 16.625V7.8125C56.9639 7.25 56.4951 6.78125 55.9326 6.78125H47.9639C47.1201 4.90625 44.3076 0.40625 35.7764 0.40625C35.2139 0.40625 34.7451 0.875 34.7451 1.4375V6.78125H33.4326C32.8701 6.78125 32.4014 7.25 32.4014 7.8125V16.5312C31.9326 22.4375 30.5264 26.4688 28.6514 29.2812C27.4326 30.9688 26.1201 32.1875 24.6201 33.125C21.0576 35.1875 16.9326 35.2812 13.3701 35.4688C11.5889 35.5625 10.0889 35.5625 8.87012 35.8438C5.96387 36.5 3.90137 38 2.58887 40.3438C0.245116 44.4688 0.620116 50.8438 3.62012 59.8438C3.80762 60.3125 4.18262 60.5937 4.55762 60.5937H7.18262C7.74512 60.5937 8.21387 60.125 8.21387 59.5625V59.4688L8.40137 59.8438C8.58887 60.2188 8.96387 60.4062 9.33887 60.4062H12.7139C13.2764 60.4062 13.7451 59.9375 13.7451 59.375V59L14.4951 59.9375C14.6826 60.2188 14.9639 60.3125 15.3389 60.3125H18.8076C19.3701 60.3125 19.8389 59.8438 19.8389 59.2812V59L20.4014 59.8438C20.5889 60.125 20.8701 60.3125 21.2451 60.3125H23.7764C24.3389 60.3125 24.8076 59.8438 24.8076 59.2812V58.7188L25.8389 59.9375C26.0264 60.125 26.3076 60.3125 26.5889 60.3125H29.9639C30.1514 60.3125 30.4326 60.2188 30.6201 60.125C35.4951 56.375 40.0889 56.0938 41.6826 56.0938L43.3701 59.75C43.5576 60.125 43.9326 60.3125 44.3076 60.3125H48.8076C49.3701 60.3125 49.8389 59.8438 49.8389 59.2812V58.3438L51.2451 59.9375C51.4326 60.2188 51.7139 60.3125 51.9951 60.3125H56.6826C57.0576 60.3125 57.4326 60.0312 57.6201 59.75C59.0264 56.6562 58.9326 52.5312 58.9326 46.3438ZM36.8076 2.46875C42.2451 2.75 44.5889 5.1875 45.6201 6.6875H36.8076V2.46875ZM4.27637 41.1875C5.30762 39.4062 6.90137 38.2812 9.24512 37.7188C10.2764 37.4375 11.6826 37.4375 13.3701 37.4375C14.7764 37.4375 16.4639 37.3438 18.1514 37.1562V40.7188C18.1514 41.2812 18.6201 41.75 19.1826 41.75C19.7451 41.75 20.2139 41.2812 20.2139 40.7188V36.7812C21.7139 36.5 23.1201 36.0312 24.6201 35.2812L26.4951 38.9375C26.6826 39.3125 27.0576 39.5 27.4326 39.5C27.6201 39.5 27.7139 39.5 27.9014 39.4062C28.3701 39.125 28.6514 38.5625 28.3701 38L26.4951 34.25C27.6201 33.5 28.7451 32.4688 29.6826 31.3438L33.6201 34.7188C33.8076 34.9062 34.0889 35 34.2764 35C34.5576 35 34.8389 34.9062 35.0264 34.625C35.4014 34.1562 35.3076 33.5 34.9326 33.125L30.8076 29.5625C31.4639 28.4375 32.1201 27.125 32.6826 25.7188L37.6514 27.7812C37.7451 27.875 37.9326 27.875 38.0264 27.875C38.4014 27.875 38.7764 27.5938 38.9639 27.2188C39.1514 26.6562 38.9639 26.0938 38.4014 25.9062L33.2451 23.75C33.8076 21.6875 34.2764 19.25 34.4639 16.5312V8.84375H35.7764H47.2139H54.9014V16.625C54.8076 22.4375 55.3701 27.6875 55.9326 32.75C56.4014 37.0625 56.8701 41.5625 56.9639 46.25C56.9639 46.625 56.9639 47.0938 56.9639 47.4688C54.0576 47.2812 45.9951 47 35.9639 48.875C28.3701 50.2812 16.5576 51.125 3.52637 51.125C2.77637 46.8125 2.96387 43.5312 4.27637 41.1875ZM55.9326 58.3438H52.4639L49.5576 54.875C49.2764 54.5 48.8076 54.4062 48.4326 54.5938C48.0576 54.7812 47.7764 55.1562 47.7764 55.5312V58.3438H44.9639L43.2764 54.7812C43.0889 54.5 42.8076 54.2188 42.4326 54.2188C42.1514 54.2188 36.1514 53.5625 29.6826 58.4375H27.1514L24.6201 55.4375C24.3389 55.0625 23.8701 54.9688 23.4951 55.1562C23.1201 55.3438 22.8389 55.7188 22.8389 56.0938V58.3438H21.9014L19.6514 55.25C19.3701 54.875 18.9014 54.6875 18.5264 54.875C18.0576 54.9688 17.7764 55.4375 17.7764 55.9062V58.4375H15.8076L13.5576 55.4375C13.2764 55.0625 12.8076 54.9688 12.4326 55.0625C12.0576 55.25 11.6826 55.625 11.6826 56V58.4375H9.99512L8.02637 54.7812C7.83887 54.4062 7.27637 54.125 6.90137 54.3125C6.43262 54.4062 6.15137 54.875 6.15137 55.3438V58.3438H5.21387C4.65137 56.5625 4.18262 54.7812 3.90137 53.2812C12.0576 53.2812 26.0264 52.9062 36.2451 51.0312C46.1826 49.25 54.2451 49.5312 56.8701 49.7188C56.8701 53.375 56.6826 56.1875 55.9326 58.3438Z" fill="black" stroke="black" stroke-width="0.5"/>
</svg>
