<svg width="102" height="102" viewBox="0 0 102 102" fill="none" xmlns="http://www.w3.org/2000/svg">
<path d="M84.5574 71.8158C85.3314 71.8151 86.0903 71.6013 86.7509 71.1978C87.4114 70.7943 87.9481 70.2166 88.3021 69.5283C88.6561 68.8399 88.8137 68.0673 88.7576 67.2953C88.7016 66.5233 88.434 65.7816 87.9843 65.1516L71.6716 42.3096H76.127C76.9332 42.3096 77.7225 42.0783 78.4013 41.6433C79.08 41.2082 79.6198 40.5876 79.9565 39.8551C80.2933 39.1226 80.4129 38.3089 80.3012 37.5105C80.1895 36.712 79.8512 35.9624 79.3263 35.3504L54.0353 5.84422C53.6276 5.40259 53.1329 5.05015 52.5822 4.8091C52.0316 4.56805 51.4371 4.4436 50.836 4.4436C50.2349 4.4436 49.6404 4.56805 49.0898 4.8091C48.5392 5.05015 48.0444 5.40259 47.6367 5.84422L22.3457 35.3504C21.8209 35.9624 21.4825 36.712 21.3708 37.5105C21.2591 38.3089 21.3787 39.1226 21.7155 39.8551C22.0522 40.5876 22.592 41.2082 23.2708 41.6433C23.9495 42.0783 24.7388 42.3096 25.545 42.3096H30.0004L13.6878 65.1516C13.238 65.7816 12.9705 66.5233 12.9144 67.2953C12.8583 68.0673 13.0159 68.8399 13.3699 69.5283C13.7239 70.2166 14.2606 70.7943 14.9212 71.1978C15.5817 71.6013 16.3406 71.8151 17.1147 71.8158H46.6208V88.6765H33.9753C32.8574 88.6765 31.7853 89.1206 30.9948 89.911C30.2043 90.7015 29.7602 91.7737 29.7602 92.8916C29.7602 94.0096 30.2043 95.0817 30.9948 95.8722C31.7853 96.6627 32.8574 97.1068 33.9753 97.1068H67.6967C68.8146 97.1068 69.8868 96.6627 70.6773 95.8722C71.4678 95.0817 71.9118 94.0096 71.9118 92.8916C71.9118 91.7737 71.4678 90.7015 70.6773 89.911C69.8868 89.1206 68.8146 88.6765 67.6967 88.6765H55.0512V71.8158H84.5574ZM41.6174 40.5435C42.0672 39.9135 42.3347 39.1718 42.3908 38.3998C42.4469 37.6277 42.2893 36.8552 41.9353 36.1668C41.5813 35.4784 41.0446 34.9008 40.384 34.4973C39.7235 34.0938 38.9646 33.88 38.1905 33.8793H34.7088L50.836 15.067L66.9632 33.8793H63.4815C62.7075 33.88 61.9485 34.0938 61.288 34.4973C60.6274 34.9008 60.0907 35.4784 59.7367 36.1668C59.3828 36.8552 59.2252 37.6277 59.2812 38.3998C59.3373 39.1718 59.6049 39.9135 60.0546 40.5435L76.3673 63.3855H25.3047L41.6174 40.5435Z" fill="#FFAE00"/>
</svg>
