<svg width="30" height="29" viewBox="0 0 30 29" fill="none" xmlns="http://www.w3.org/2000/svg">
<path d="M15 13.8182C16.8233 13.8182 18.5719 13.0903 19.8612 11.7946C21.1505 10.4989 21.8748 8.74151 21.8748 6.9091C21.8748 5.07669 21.1505 3.31934 19.8612 2.02363C18.5719 0.727921 16.8233 0 15 0C13.1767 0 11.4281 0.727921 10.1388 2.02363C8.84953 3.31934 8.12523 5.07669 8.12523 6.9091C8.12523 8.74151 8.84953 10.4989 10.1388 11.7946C11.4281 13.0903 13.1767 13.8182 15 13.8182ZM15 16.8537C5.85955 16.8537 0 21.923 0 24.3912V29H30V24.3912C30 21.4064 24.4527 16.8537 15 16.8537Z" fill="#FFAE00"/>
</svg>
