<svg width="92" height="92" viewBox="0 0 92 92" fill="none" xmlns="http://www.w3.org/2000/svg">
<path d="M11.5 34.5001H80.5M26.8333 57.5001H34.5M23.7667 72.8334H68.2333C72.527 72.8334 74.6741 72.8334 76.314 71.9977C77.7565 71.2629 78.9295 70.0899 79.6643 68.6474C80.5 67.0075 80.5 64.8605 80.5 60.5668V31.4334C80.5 27.1397 80.5 24.9928 79.6643 23.3528C78.9295 21.9102 77.7565 20.7374 76.314 20.0024C74.6741 19.1667 72.527 19.1667 68.2333 19.1667H23.7667C19.4729 19.1667 17.3261 19.1667 15.6861 20.0024C14.2435 20.7374 13.0706 21.9102 12.3356 23.3528C11.5 24.9928 11.5 27.1397 11.5 31.4334V60.5668C11.5 64.8605 11.5 67.0075 12.3356 68.6474C13.0706 70.0899 14.2435 71.2629 15.6861 71.9977C17.3261 72.8334 19.4729 72.8334 23.7667 72.8334Z" stroke="white" stroke-width="3" stroke-linecap="round" stroke-linejoin="round"/>
</svg>
