<svg width="82" height="82" viewBox="0 0 82 82" fill="none" xmlns="http://www.w3.org/2000/svg">
<path d="M42.9822 33.1826H14.8166C13.2675 33.1826 12 34.4407 12 35.9783C12 37.5159 13.2675 38.774 14.8166 38.774H42.9822C44.5313 38.774 45.7987 37.5159 45.7987 35.9783C45.7987 34.4407 44.5313 33.1826 42.9822 33.1826ZM42.9822 22H14.8166C13.2675 22 12 23.258 12 24.7957C12 26.3333 13.2675 27.5913 14.8166 27.5913H42.9822C44.5313 27.5913 45.7987 26.3333 45.7987 24.7957C45.7987 23.258 44.5313 22 42.9822 22ZM14.8166 49.9566H31.7159C33.265 49.9566 34.5325 48.6985 34.5325 47.1609C34.5325 45.6233 33.265 44.3653 31.7159 44.3653H14.8166C13.2675 44.3653 12 45.6233 12 47.1609C12 48.6985 13.2675 49.9566 14.8166 49.9566ZM68.9227 39.361L69.1762 39.6127C70.2746 40.703 70.2746 42.4642 69.1762 43.5545L53.4598 59.1823C52.3613 60.2726 50.5869 60.2726 49.4884 59.1823L40.7852 50.5437C40.5241 50.2851 40.3169 49.9779 40.1756 49.6397C40.0342 49.3015 39.9614 48.9389 39.9614 48.5727C39.9614 48.2066 40.0342 47.844 40.1756 47.5058C40.3169 47.1676 40.5241 46.8604 40.7852 46.6018L41.0387 46.3502C42.1372 45.2599 43.9116 45.2599 45.0101 46.3502L51.4882 52.7802L64.9513 39.389C66.0216 38.2707 67.8242 38.2707 68.9227 39.361Z" fill="#FFAE00"/>
</svg>
