<svg width="60" height="59" viewBox="0 0 60 59" fill="none" xmlns="http://www.w3.org/2000/svg">
<path d="M11.3442 8.28321C11.3442 9.12885 11.5136 9.96621 11.8427 10.7475C12.1718 11.5287 12.6542 12.2386 13.2623 12.8366C13.8704 13.4345 14.5923 13.9089 15.3868 14.2325C16.1813 14.5561 17.0329 14.7227 17.8928 14.7227C18.7528 14.7227 19.6044 14.5561 20.3989 14.2325C21.1934 13.9089 21.9153 13.4345 22.5234 12.8366C23.1315 12.2386 23.6138 11.5287 23.9429 10.7475C24.272 9.96621 24.4414 9.12885 24.4414 8.28321C24.4414 7.43756 24.272 6.60021 23.9429 5.81892C23.6138 5.03767 23.1315 4.32777 22.5234 3.72983C21.9153 3.13187 21.1934 2.65753 20.3989 2.33392C19.6044 2.01031 18.7528 1.84375 17.8928 1.84375C17.0329 1.84375 16.1813 2.01031 15.3868 2.33392C14.5923 2.65753 13.8704 3.13187 13.2623 3.72983C12.6542 4.32777 12.1718 5.03767 11.8427 5.81892C11.5136 6.60021 11.3442 7.43756 11.3442 8.28321Z" stroke="#FFAE00" stroke-width="3" stroke-linecap="round" stroke-linejoin="round"/>
<path d="M28.4553 51.7428C27.2045 53.2505 25.6618 54.4991 23.9171 55.4165C22.1722 56.334 20.2597 56.9023 18.2901 57.0884C16.3206 57.2745 14.333 57.0749 12.4424 56.5009C10.5518 55.9269 8.79571 54.99 7.27568 53.7444C5.75568 52.4987 4.50188 50.9689 3.58686 49.2439C2.67183 47.5186 2.11371 45.6324 1.94478 43.6937C1.77586 41.7551 1.99949 39.8029 2.60273 37.9498C3.20596 36.0967 4.17686 34.3798 5.45921 32.8979" stroke="#FFAE00" stroke-width="3" stroke-linecap="round" stroke-linejoin="round"/>
<path d="M40.2777 52.0366L33.1677 43.647C32.8187 43.2313 32.3804 42.897 31.8844 42.6676C31.3884 42.438 30.8469 42.3193 30.2989 42.3198H16.9571C15.9647 42.3198 15.0129 41.9321 14.3111 41.242C13.6093 40.552 13.2151 39.6161 13.2151 38.6401V23.9214C13.2151 22.9455 13.6093 22.0095 14.3111 21.3195C15.0129 20.6294 15.9647 20.2417 16.9571 20.2417H26.4594C27.4519 20.2417 28.4037 20.6294 29.1054 21.3195C29.8072 22.0095 30.2014 22.9455 30.2014 23.9214C30.2014 24.8973 29.8072 25.8332 29.1054 26.5233C28.4037 27.2133 27.4519 27.601 26.4594 27.601H20.6992V34.9605H30.2989C31.9452 34.958 33.5717 35.313 35.0624 36.0001C36.5532 36.687 37.8714 37.689 38.9229 38.9344L46.0354 47.3217C46.3502 47.6934 46.5874 48.1227 46.7337 48.5846C46.8799 49.0465 46.9322 49.5323 46.8874 50.0139C46.8427 50.4957 46.7019 50.9643 46.4732 51.3925C46.2444 51.8207 45.9319 52.2006 45.5539 52.5101C45.1759 52.8198 44.7394 53.0531 44.2697 53.1967C43.7999 53.3405 43.3059 53.3919 42.8162 53.3479C42.3262 53.3039 41.8497 53.1655 41.4142 52.9405C40.9787 52.7156 40.5924 52.4085 40.2777 52.0366Z" stroke="#FFAE00" stroke-width="3" stroke-linecap="round" stroke-linejoin="round"/>
</svg>
