<svg width="73" height="73" viewBox="0 0 73 73" fill="none" xmlns="http://www.w3.org/2000/svg">
<g clip-path="url(#clip0_58_439)">
<path d="M72.9999 30.4158L63.4711 51.7067H60.5238L64.0643 44.2562L57.7908 30.4135H60.891L65.4307 41.0236H65.49L69.886 30.4135L72.9999 30.4158ZM33.4111 36.9995V45.6249H30.4158V24.334H38.3409C40.2298 24.2861 42.0593 24.9408 43.4737 26.175C44.8767 27.327 45.6477 28.9558 45.6249 30.6782C45.6477 32.4256 44.8516 34.1 43.4737 35.1927C42.0958 36.4041 40.3849 36.9995 38.3409 36.9995H33.4111ZM33.3997 26.9597V34.3852H38.4139C39.518 34.4217 40.5993 34.0179 41.3727 33.2925C42.146 32.6035 42.5726 31.6637 42.5726 30.6896C42.5726 29.7041 42.1437 28.7642 41.3727 28.0867C40.5765 27.327 39.5066 26.9232 38.4139 26.9574L33.3997 26.9597ZM51.6246 30.4158C53.5249 30.4158 55.0351 30.9496 56.1392 32.0081C57.2433 33.0666 57.7908 34.5152 57.7908 36.3562V45.1595H55.3202V43.1748H55.213C54.1431 44.8037 52.7287 45.6226 50.9585 45.6226C49.4369 45.6226 48.1776 45.1595 47.1556 44.2197C46.1565 43.3414 45.5998 42.057 45.6226 40.7271C45.6226 39.2534 46.1565 38.0785 47.2378 37.198C48.3077 36.3311 49.7449 35.8908 51.5379 35.8908C53.0709 35.8908 54.3302 36.1874 55.3157 36.7691V36.1509C55.3271 35.2475 54.9347 34.3806 54.2572 33.7738C53.5796 33.1442 52.6877 32.7883 51.7615 32.7997C50.3243 32.7997 49.1837 33.4293 48.3396 34.6886L46.0698 33.2149C47.3176 31.3488 49.17 30.4112 51.6178 30.4112L51.6246 30.4158ZM48.2871 40.7887C48.2757 41.4776 48.5951 42.1186 49.1426 42.5361C49.7129 42.9992 50.427 43.2501 51.1501 43.2364C52.2314 43.2364 53.2762 42.7847 54.0496 41.9886C54.8685 41.2289 55.3339 40.159 55.3339 39.0412C54.5264 38.3751 53.4085 38.042 51.9714 38.042C50.9129 38.042 50.046 38.3044 49.3456 38.8268C48.6453 39.3606 48.2871 40.0062 48.2871 40.7887ZM12.4168 24.334C15.4828 24.2975 18.453 25.4267 20.7228 27.5072L17.1823 30.977C15.8865 29.7771 14.1756 29.1223 12.4168 29.1588C9.25723 29.1702 6.46498 31.1914 5.44298 34.173C4.92058 35.6809 4.92058 37.3212 5.44298 38.8313C6.46498 41.8129 9.25723 43.8341 12.4168 43.8455C14.0912 43.8455 15.5307 43.4303 16.6462 42.6935C17.942 41.838 18.8453 40.5081 19.1168 38.9865H12.4145V34.3053H24.1173C24.261 35.1243 24.3317 35.9456 24.3317 36.7759C24.3317 40.483 22.9767 43.6197 20.6361 45.7344C18.5807 47.5891 15.7656 48.6681 12.4145 48.6681C7.74477 48.6909 3.46742 46.1017 1.3162 41.9658C-0.442641 38.5325 -0.442641 34.4696 1.3162 31.034C3.46742 26.8981 7.74477 24.3089 12.4008 24.3317L12.4168 24.334Z" fill="white"/>
</g>
<defs>
<clipPath id="clip0_58_439">
<rect width="73" height="73" fill="white"/>
</clipPath>
</defs>
</svg>
