<svg width="82" height="82" viewBox="0 0 82 82" fill="none" xmlns="http://www.w3.org/2000/svg">
<path d="M40.5 20.25C41.9575 20.25 43.15 21.4425 43.15 22.9V33.5C43.15 34.9575 41.9575 36.15 40.5 36.15C39.0425 36.15 37.85 34.9575 37.85 33.5V22.9C37.85 21.4425 39.0425 20.25 40.5 20.25ZM40.4735 7C25.8455 7 14 18.872 14 33.5C14 48.128 25.8455 60 40.4735 60C55.128 60 67 48.128 67 33.5C67 18.872 55.128 7 40.4735 7ZM40.5 54.7C28.787 54.7 19.3 45.213 19.3 33.5C19.3 21.787 28.787 12.3 40.5 12.3C52.213 12.3 61.7 21.787 61.7 33.5C61.7 45.213 52.213 54.7 40.5 54.7ZM43.15 46.75H37.85V41.45H43.15V46.75Z" fill="#FFAE00"/>
</svg>
