<svg width="61" height="61" viewBox="0 0 61 61" fill="none" xmlns="http://www.w3.org/2000/svg">
<g clip-path="url(#clip0_74_556)">
<path d="M30.5 0.5C13.9191 0.5 0.5 13.9176 0.5 30.5C0.5 47.0809 13.9176 60.5 30.5 60.5C47.081 60.5 60.5 47.0823 60.5 30.5C60.5 13.919 47.0823 0.5 30.5 0.5ZM30.5 56.587C16.1157 56.587 4.41301 44.8844 4.41301 30.5C4.41301 16.1156 16.1157 4.41301 30.5 4.41301C44.8843 4.41301 56.587 16.1157 56.587 30.5C56.587 44.8843 44.8843 56.587 30.5 56.587Z" fill="black"/>
<path d="M36.8543 40.3975V28.2241C36.8543 25.5088 35.1418 23.1869 32.7406 22.2789C35.2039 21.3658 36.9642 18.9925 36.9642 16.2155C36.9642 12.651 34.0644 9.75122 30.4999 9.75122C26.9354 9.75122 24.0356 12.651 24.0356 16.2155C24.0356 18.6455 25.3839 20.7656 27.3712 21.8697H26.7354C23.2314 21.8697 20.381 24.7202 20.381 28.2241C20.381 30.7648 21.9148 33.0209 24.1455 34.0252V40.3975C21.8472 41.1706 20.1875 43.3457 20.1875 45.9011C20.1875 49.1018 22.7914 51.7057 25.9921 51.7057H35.0079C38.2086 51.7057 40.8125 49.1018 40.8125 45.9011C40.8124 43.3457 39.1525 41.1707 36.8543 40.3975ZM30.5 13.6643C31.9067 13.6643 33.0513 14.8088 33.0513 16.2156C33.0513 17.6224 31.9068 18.7669 30.5 18.7669C29.0932 18.7669 27.9487 17.6225 27.9487 16.2156C27.9487 14.8088 29.0932 13.6643 30.5 13.6643ZM35.0079 47.7926H25.9921C24.9491 47.7926 24.1006 46.9442 24.1006 45.9011C24.1006 44.858 24.9491 44.0096 25.9921 44.0096H26.1021C27.1825 44.0096 28.0586 43.1336 28.0586 42.053V32.5768C28.0586 31.6041 27.3441 30.7791 26.3813 30.6404C25.1914 30.4687 24.2941 29.43 24.2941 28.2243C24.2941 26.8782 25.3892 25.7829 26.7355 25.7829H30.5C31.8461 25.7829 32.9414 26.8781 32.9414 28.2243V42.0531C32.9414 43.057 33.7041 44.0097 35.0079 44.0097C36.0509 44.0097 36.8994 44.8581 36.8994 45.9012C36.8994 46.9443 36.0508 47.7926 35.0079 47.7926Z" fill="black"/>
</g>
<defs>
<clipPath id="clip0_74_556">
<rect width="60" height="60" fill="white" transform="translate(0.5 0.5)"/>
</clipPath>
</defs>
</svg>
