<svg width="82" height="82" viewBox="0 0 82 82" fill="none" xmlns="http://www.w3.org/2000/svg">
<path d="M40.4735 7C25.8455 7 14 18.872 14 33.5C14 48.128 25.8455 60 40.4735 60C55.128 60 67 48.128 67 33.5C67 18.872 55.128 7 40.4735 7ZM58.838 22.9H51.0205C50.1725 19.5875 48.9535 16.4075 47.3635 13.466C52.2395 15.1355 56.294 18.5275 58.838 22.9ZM40.5 12.406C42.6995 15.586 44.422 19.1105 45.5615 22.9H35.4385C36.578 19.1105 38.3005 15.586 40.5 12.406ZM19.989 38.8C19.565 37.104 19.3 35.3285 19.3 33.5C19.3 31.6715 19.565 29.896 19.989 28.2H28.946C28.734 29.949 28.575 31.698 28.575 33.5C28.575 35.302 28.734 37.051 28.946 38.8H19.989ZM22.162 44.1H29.9795C30.8275 47.4125 32.0465 50.5925 33.6365 53.534C28.7605 51.8645 24.706 48.499 22.162 44.1ZM29.9795 22.9H22.162C24.706 18.501 28.7605 15.1355 33.6365 13.466C32.0465 16.4075 30.8275 19.5875 29.9795 22.9ZM40.5 54.594C38.3005 51.414 36.578 47.8895 35.4385 44.1H45.5615C44.422 47.8895 42.6995 51.414 40.5 54.594ZM46.701 38.8H34.299C34.0605 37.051 33.875 35.302 33.875 33.5C33.875 31.698 34.0605 29.9225 34.299 28.2H46.701C46.9395 29.9225 47.125 31.698 47.125 33.5C47.125 35.302 46.9395 37.051 46.701 38.8ZM47.3635 53.534C48.9535 50.5925 50.1725 47.4125 51.0205 44.1H58.838C56.294 48.4725 52.2395 51.8645 47.3635 53.534ZM52.054 38.8C52.266 37.051 52.425 35.302 52.425 33.5C52.425 31.698 52.266 29.949 52.054 28.2H61.011C61.435 29.896 61.7 31.6715 61.7 33.5C61.7 35.3285 61.435 37.104 61.011 38.8H52.054Z" fill="#FFAE00"/>
</svg>
