<svg width="79" height="79" viewBox="0 0 79 79" fill="none" xmlns="http://www.w3.org/2000/svg">
<path d="M70 23.2867C70 19.6814 70 17.8787 69.0406 16.5215C68.0809 15.1644 66.4034 14.5943 63.0484 13.4542L59.101 12.1129C54.468 10.5385 52.1517 9.75136 49.8195 10.0698C47.4873 10.3881 45.4556 11.7689 41.392 14.5305L36.7076 17.7144C33.5352 19.8703 31.9493 20.9482 30.1699 21.377C29.5164 21.5345 28.8492 21.6256 28.1781 21.6489C26.3507 21.7126 24.5423 21.098 20.9255 19.869C16.1881 18.2592 13.8194 17.4542 12.0171 18.2716C11.3772 18.5618 10.803 18.9837 10.3306 19.5108C9 20.9954 9 23.5408 9 28.6316V42.6726M70 36.5452V51.3687C70 56.4593 70 59.0048 68.6695 60.4893C68.1971 61.0165 67.6227 61.4383 66.9829 61.7285C65.1807 62.5459 62.8118 61.741 58.0745 60.131C54.4575 58.9022 52.6492 58.2876 50.8219 58.3511C50.1509 58.3746 49.4837 58.4655 48.8303 58.623C47.0508 59.0518 45.4648 60.1297 42.2924 62.2858L37.608 65.4694C33.5444 68.2311 31.5128 69.612 29.1806 69.9302C26.8484 70.2487 24.5319 69.4614 19.899 67.887L15.9517 66.5459C12.5966 65.4058 10.919 64.8358 9.95953 63.4784C9.05107 62.1935 9.00271 60.5093 9.00014 57.2739" stroke="#FFAE00" stroke-width="5" stroke-linecap="round"/>
<path d="M50 12V23.6667M50 57V37" stroke="#FFAE00" stroke-width="5" stroke-linecap="round"/>
<path d="M30 70V58.0741M30 24V44.4444" stroke="#FFAE00" stroke-width="5" stroke-linecap="round"/>
</svg>
