<svg width="55" height="55" viewBox="0 0 55 55" fill="none" xmlns="http://www.w3.org/2000/svg">
<path fill-rule="evenodd" clip-rule="evenodd" d="M43.5416 4.5835C47.3385 4.5835 50.4166 7.66154 50.4166 11.4585V43.5418C50.4166 47.3388 47.3385 50.4168 43.5416 50.4168H11.4583C7.66129 50.4168 4.58325 47.3388 4.58325 43.5418V11.4585C4.58325 7.66154 7.66129 4.5835 11.4583 4.5835H43.5416ZM43.5416 9.16683H11.4583C10.1926 9.16683 9.16658 10.1928 9.16658 11.4585V43.5418C9.16658 44.8075 10.1926 45.8335 11.4583 45.8335H43.5416C44.8072 45.8335 45.8332 44.8075 45.8332 43.5418V11.4585C45.8332 10.1928 44.8072 9.16683 43.5416 9.16683ZM20.6249 13.7502H27.4999C32.5625 13.7502 36.6666 17.8542 36.6666 22.9168C36.6666 27.826 32.8075 31.8339 27.9574 32.0723L27.4999 32.0835H22.9166V38.9585C22.9166 40.2241 21.8906 41.2502 20.6249 41.2502C19.3593 41.2502 18.3333 40.2241 18.3333 38.9585V16.0418C18.3333 14.7762 19.3593 13.7502 20.6249 13.7502ZM27.4999 18.3335H22.9166V27.5002H27.4999L27.842 27.4876C30.2135 27.3126 32.0833 25.3331 32.0833 22.9168C32.0833 20.3855 30.0312 18.3335 27.4999 18.3335Z" fill="#FFAE00"/>
</svg>
