<svg width="60" height="60" viewBox="0 0 60 60" fill="none" xmlns="http://www.w3.org/2000/svg">
<path fill-rule="evenodd" clip-rule="evenodd" d="M53.9264 17.6997C50.2824 33.3507 39.1669 36 24.236 36L19.7344 60H27.9762C29.4777 60 30.1066 58.9776 30.3835 57.5376C32.4386 44.5446 32.1498 46.6707 32.3364 44.6367C32.5139 43.5027 33.4948 42 34.6473 42C45.5943 42 52.8552 38.8356 55.0729 27.4746C55.8612 23.4336 55.6024 20.3157 53.9264 17.6997ZM19.9029 35.5796L16.5358 54H6.10638C5.1194 54 4.36412 52.7938 4.52059 51.8218L12.308 2.25293C12.5126 0.95693 13.6351 0 14.953 0H33.6543C44.7277 0 52.1841 4.2036 50.4599 15.1626C47.4418 34.6806 30.7114 33 23.0985 33C21.7805 33 20.1105 34.2836 19.9029 35.5796Z" fill="white"/>
</svg>
