<svg width="47" height="46" viewBox="0 0 47 46" fill="none" xmlns="http://www.w3.org/2000/svg">
<path d="M21.15 32.2C21.15 33.4703 22.2021 34.5 23.5 34.5C24.7979 34.5 25.85 33.4703 25.85 32.2H21.15ZM14.6068 28.5021C15.8742 28.2281 16.6746 27.0006 16.3947 25.7602C16.1148 24.5198 14.8605 23.7365 13.5932 24.0104L14.6068 28.5021ZM33.4069 24.0104C32.1395 23.7365 30.8851 24.5198 30.6052 25.7602C30.3253 27.0006 31.1257 28.2281 32.3931 28.5021L33.4069 24.0104ZM30.55 11.5C30.55 15.3108 27.3937 18.4 23.5 18.4V23C29.9893 23 35.25 17.8513 35.25 11.5H30.55ZM23.5 18.4C19.6063 18.4 16.45 15.3108 16.45 11.5H11.75C11.75 17.8513 17.0107 23 23.5 23V18.4ZM16.45 11.5C16.45 7.68925 19.6063 4.6 23.5 4.6V0C17.0107 0 11.75 5.14873 11.75 11.5H16.45ZM23.5 4.6C27.3937 4.6 30.55 7.68925 30.55 11.5H35.25C35.25 5.14873 29.9893 0 23.5 0V4.6ZM21.15 20.7V32.2H25.85V20.7H21.15ZM42.3 34.5C42.3 35.0219 42.0666 35.6921 41.2855 36.4955C40.4931 37.3106 39.2351 38.1492 37.5008 38.9036C34.0383 40.4096 29.0904 41.4 23.5 41.4V46C29.5905 46 35.2173 44.9307 39.4097 43.1071C41.5029 42.1965 43.3422 41.0529 44.6902 39.6665C46.0497 38.2685 47 36.5187 47 34.5H42.3ZM23.5 41.4C17.9097 41.4 12.9616 40.4096 9.49912 38.9036C7.76492 38.1492 6.50696 37.3106 5.7144 36.4955C4.93336 35.6921 4.7 35.0219 4.7 34.5H0C0 36.5187 0.950293 38.2685 2.30974 39.6665C3.65766 41.0529 5.49707 42.1965 7.59026 43.1071C11.7826 44.9307 17.4095 46 23.5 46V41.4ZM4.7 34.5C4.7 33.7695 5.18892 32.6908 6.96437 31.47C8.69803 30.2781 11.3163 29.2134 14.6068 28.5021L13.5932 24.0104C9.91965 24.8046 6.66291 26.0555 4.26257 27.706C1.90404 29.3278 0 31.6181 0 34.5H4.7ZM32.3931 28.5021C35.6838 29.2134 38.3019 30.2781 40.0355 31.47C41.8112 32.6908 42.3 33.7695 42.3 34.5H47C47 31.6181 45.096 29.3278 42.7373 27.706C40.337 26.0555 37.0804 24.8046 33.4069 24.0104L32.3931 28.5021Z" fill="#FFAE00"/>
</svg>
