<svg width="45" height="61" viewBox="0 0 45 61" fill="none" xmlns="http://www.w3.org/2000/svg">
<path fill-rule="evenodd" clip-rule="evenodd" d="M29.9994 0.500488C34.97 0.500488 38.9993 4.52986 38.9993 9.50032C38.9993 13.8125 35.9666 17.4164 31.9177 18.2953L31.4064 18.3908L35.714 25.283L40.885 23.2146C42.4234 22.5993 44.1694 23.3475 44.7846 24.8858C45.356 26.3143 44.7517 27.9218 43.4307 28.6368L43.1134 28.7855L37.9424 30.8539C35.4049 31.8687 32.5263 31.0365 30.9133 28.8823L30.6261 28.463L30.1383 27.6827L28.3204 34.9551C28.1576 35.6055 27.8945 36.2045 27.5517 36.7393L27.28 37.1283L32.2398 40.8125C33.4286 41.6957 34.2433 42.9828 34.5391 44.4207L34.6253 44.9665L35.6843 54.4995H35.9993C37.6562 54.4995 38.9993 55.8425 38.9993 57.4994C38.9993 59.0379 37.8412 60.3059 36.3492 60.4792L35.9993 60.4993H33.2679C31.7065 60.4993 30.3769 59.4093 30.0463 57.9155L29.988 57.5639L28.6621 45.6289L19.2107 38.6082C19.0398 38.4813 18.8862 38.3394 18.7505 38.1861C17.0952 36.86 16.2136 34.7056 16.5809 32.5144L16.6788 32.0446L19.0616 22.5136L14.3533 23.9261L11.8458 31.4485C11.3219 33.0205 9.62298 33.8698 8.05116 33.346C6.59164 32.8593 5.75494 31.3597 6.06235 29.8896L6.15384 29.5513L8.66135 22.0287C9.22734 20.3307 10.5183 18.9825 12.1701 18.3374L12.6293 18.1792L22.9418 15.0854C21.7259 13.5508 20.9996 11.6104 20.9996 9.50032C20.9996 4.52986 25.0288 0.500488 29.9994 0.500488ZM15.5997 40.6997C16.5938 39.3743 18.4742 39.1056 19.7996 40.0997C21.0231 41.0174 21.3462 42.6902 20.6067 43.9846L20.3996 44.2997L16.7511 49.1644C15.4077 50.9556 12.9718 51.4704 11.0352 50.4362L10.655 50.2086L4.86582 46.3492C3.6881 47.2867 1.96844 47.2108 0.878654 46.1209C-0.202766 45.0396 -0.285952 43.3378 0.629095 42.161L0.878654 41.8784L2.36126 40.3958C3.28968 39.4675 4.69657 39.2519 5.84756 39.8224L6.18444 40.0172L12.8025 44.4293L15.5997 40.6997ZM29.9994 6.50037C28.3426 6.50037 26.9995 7.84351 26.9995 9.50032C26.9995 11.1571 28.3426 12.5003 29.9994 12.5003C31.6563 12.5003 32.9994 11.1571 32.9994 9.50032C32.9994 7.84351 31.6563 6.50037 29.9994 6.50037Z" fill="#FFAE00"/>
</svg>
