<svg width="66" height="41" viewBox="0 0 66 41" fill="none" xmlns="http://www.w3.org/2000/svg">
<path d="M32.5777 25.5675C27.1481 25.5675 22.8044 20.8619 22.8044 14.7083C22.8044 8.55477 27.1481 3.84912 32.5777 3.84912C38.0073 3.84912 42.351 8.55477 42.351 14.7083C42.351 20.8619 38.0073 25.5675 32.5777 25.5675ZM32.5777 7.46885C29.32 7.46885 26.4242 10.7266 26.4242 14.7083C26.4242 18.69 28.958 21.9478 32.5777 21.9478C36.1975 21.9478 38.7313 18.69 38.7313 14.7083C38.7313 10.7266 35.8355 7.46885 32.5777 7.46885Z" fill="#FFAE00"/>
<path d="M36.5593 20.8618H37.2833C43.0748 20.8618 47.7805 25.5675 47.7805 31.359V38.9605C47.7805 40.0464 47.0566 40.7703 45.9706 40.7703C44.8847 40.7703 44.1608 40.0464 44.1608 38.9605V31.359C44.1608 27.7393 40.903 24.4815 37.2833 24.4815H36.5593V20.8618Z" fill="#FFAE00"/>
<path d="M28.5959 24.4815H27.872C24.2523 24.4815 20.9945 27.7393 20.9945 31.359V38.9605C20.9945 40.0464 20.2705 40.7703 19.1846 40.7703C18.0987 40.7703 17.3748 40.0464 17.3748 38.9605V31.359C17.3748 25.5675 22.0804 20.8618 27.872 20.8618H28.5959V24.4815Z" fill="#FFAE00"/>
<path d="M52.486 18.3282C48.1423 18.3282 44.1606 14.3465 44.1606 9.27882C44.1606 4.2112 47.7804 0.229492 52.486 0.229492C57.1917 0.229492 60.8114 4.2112 60.8114 9.27882C60.8114 14.3465 56.8297 18.3282 52.486 18.3282ZM52.486 3.84923C49.9522 3.84923 47.7804 6.38304 47.7804 9.27882C47.7804 12.1746 49.9522 14.7084 52.486 14.7084C55.0198 14.7084 57.1917 12.1746 57.1917 9.27882C57.1917 6.38304 55.0198 3.84923 52.486 3.84923Z" fill="#FFAE00"/>
<path d="M55.7439 13.9844H56.4678C61.1735 13.9844 65.1552 17.9661 65.1552 22.6717V28.8253C65.1552 29.9112 64.4313 30.6351 63.3453 30.6351C62.2594 30.6351 61.5355 29.9112 61.5355 28.8253V22.6717C61.5355 19.7759 59.3636 17.6041 56.4678 17.6041H55.7439V13.9844Z" fill="#FFAE00"/>
<path d="M49.2282 17.6041H48.5043C45.6085 17.6041 43.4366 19.7759 43.4366 22.6717C43.4366 23.7577 42.7127 24.4816 41.6268 24.4816C40.5408 24.4816 39.8169 23.7577 39.8169 22.6717C39.8169 17.9661 43.7986 13.9844 48.5043 13.9844H49.2282V17.6041Z" fill="#FFAE00"/>
<path d="M12.6691 18.3282C8.32546 18.3282 4.34375 14.3465 4.34375 9.27882C4.34375 4.2112 7.96348 0.229492 12.6691 0.229492C17.3748 0.229492 20.9945 4.2112 20.9945 9.27882C20.9945 14.3465 17.0128 18.3282 12.6691 18.3282ZM12.6691 3.84923C10.1353 3.84923 7.96348 6.38304 7.96348 9.27882C7.96348 12.1746 10.1353 14.7084 12.6691 14.7084C15.2029 14.7084 17.3748 12.1746 17.3748 9.27882C17.3748 6.38304 15.2029 3.84923 12.6691 3.84923Z" fill="#FFAE00"/>
<path d="M15.9268 13.9844H16.6507C21.3564 13.9844 25.3381 17.9661 25.3381 22.6717C25.3381 23.7577 24.6141 24.4816 23.5282 24.4816C22.4423 24.4816 21.7183 23.7577 21.7183 22.6717C21.7183 19.7759 19.5465 17.6041 16.6507 17.6041H15.9268V13.9844Z" fill="#FFAE00"/>
<path d="M9.41131 17.6041H8.68736C5.79157 17.6041 3.61973 19.7759 3.61973 22.6717V28.8253C3.61973 29.9112 2.89579 30.6351 1.80987 30.6351C0.723947 30.6351 0 29.9112 0 28.8253V22.6717C0 17.9661 3.98171 13.9844 8.68736 13.9844H9.41131V17.6041Z" fill="#FFAE00"/>
</svg>
