<svg width="54" height="57" viewBox="0 0 54 57" fill="none" xmlns="http://www.w3.org/2000/svg">
<path d="M24.75 30.3272C24.75 31.5549 23.7426 32.55 22.5 32.55C21.2573 32.55 20.25 31.5549 20.25 30.3272C20.25 29.0996 21.2573 28.1045 22.5 28.1045C23.7426 28.1045 24.75 29.0996 24.75 30.3272Z" fill="#FFAE00"/>
<path d="M31.5 32.55C32.7427 32.55 33.75 31.5549 33.75 30.3272C33.75 29.0996 32.7427 28.1045 31.5 28.1045C30.2573 28.1045 29.25 29.0996 29.25 30.3272C29.25 31.5549 30.2573 32.55 31.5 32.55Z" fill="#FFAE00"/>
<path fill-rule="evenodd" clip-rule="evenodd" d="M42.7501 12.5447C42.7501 8.86196 39.7281 5.87646 36.0001 5.87646H18.0001C14.2722 5.87646 11.2501 8.86196 11.2501 12.5447V32.5495C11.2501 35.8546 13.684 38.5981 16.8778 39.126L11.432 51.679C10.9425 52.8073 11.4716 54.1141 12.6138 54.5977C13.7559 55.0812 15.0787 54.5586 15.5682 53.4301L15.9481 52.5543H38.0521L38.4321 53.4301C38.9215 54.5586 40.2442 55.0812 41.3863 54.5977C42.5287 54.1141 43.0576 52.8073 42.5683 51.679L37.1224 39.126C40.3162 38.5981 42.7501 35.8546 42.7501 32.5495V12.5447ZM36.1236 48.1088H17.8767L18.841 45.8861H35.1592L36.1236 48.1088ZM33.2305 41.4406H20.7696L21.7338 39.2178H32.2664L33.2305 41.4406ZM38.2501 12.5447C38.2501 11.3171 37.2427 10.322 36.0001 10.322H29.2501V21.4358H38.2501V12.5447ZM24.7501 21.4358V10.322H18.0001C16.7575 10.322 15.7501 11.3171 15.7501 12.5447V21.4358H24.7501ZM15.7501 32.5495V25.8813H38.2501V32.5495C38.2501 33.7772 37.2427 34.7723 36.0001 34.7723H18.0001C16.7575 34.7723 15.7501 33.7772 15.7501 32.5495Z" fill="#FFAE00"/>
</svg>
